# xmcd
#
# Track frame offsets:
#	150
#	26725
#	53837
#	79250
#	100275
#	116850
#	133187
#	147925
#	164250
#	181700
#	203675
#	219700
#	245950
#	257625
#	272437
#	288325
#	306862
#	326975
#
# Disc length: 4662 seconds
#
# Revision: 0
# Processed by: cddbd v1.5.2PL0 Copyright (c) Steve Scherf et al.
# Submitted via: EasyCDDAExtractor 10.0.3.1
#
DISCID=17123412
DTITLE=Various Artist - Pop and Wave Vol. 7 Cd 2
DYEAR=1997
DGENRE=
TTITLE0=New Order - True Faith
TTITLE1=Les Rita Mitsouko - Mareia Baila
TTITLE2=Animotion - Obsession
TTITLE3=Tears For Fears - Pale Shelter
TTITLE4=Duran Duran - A View To A Kill
TTITLE5=Stephen Tin ´Tin´Duffy - Kiss Me
TTITLE6=Hipsway - The Honeythief
TTITLE7=Ellis, Beggs and Howard - Big Bubles, No Troubles
TTITLE8=Eight Wonder - I´M Not Scared
TTITLE9=Billy Idol - Rebell Yell
TTITLE10=Stranglers - Golden Brown
TTITLE11=Echo and The Bunnymen - The Killing Moon
TTITLE12=Primitives - Crash
TTITLE13=Bauhaus - Zigy Stardust
TTITLE14=Bronski Beat - I Feel Love
TTITLE15=Toyah - It´S A Mystery
TTITLE16=16 Bit - Changing Minds
TTITLE17=Georgie Red - If I Say Stop, Then Stop
EXTD=
EXTT0=
EXTT1=
EXTT2=
EXTT3=
EXTT4=
EXTT5=
EXTT6=
EXTT7=
EXTT8=
EXTT9=
EXTT10=
EXTT11=
EXTT12=
EXTT13=
EXTT14=
EXTT15=
EXTT16=
EXTT17=
PLAYORDER=
